<svg id="Layer_1" data-name="Layer 1" xmlns="http://www.w3.org/2000/svg" viewBox="0 0 382.5 37.03109"><defs><style>.cls-1{fill:#fff;}.cls-2{fill:#f26b25;}</style></defs><title>RIT_RGB_hor_w</title><rect class="cls-1" x="76.42174" y="6.03068" width="0.38184" height="24.96973"/><path class="cls-2" d="M39.57169,8.69993c.42994-1.12487,1.84974-1.12487,2.98962-1.12487h.212V6.02429s-4.44371.098-5.80284.098c-1.4002,0-5.55276-.098-5.55276-.098V7.57506h.212c1.13982,0,2.55968,0,2.98859,1.12291a21.36126,21.36126,0,0,1,.35695,4.85438v9.90674a21.4039,21.4039,0,0,1-.35592,4.85341c-.42994,1.12388-1.8498,1.12388-2.98962,1.12388h-.212v1.55181c-.0001-.00388,3.5923-.153,5.55912-.153,2.264,0,5.79648.153,5.79648.153V29.43638h-.212c-1.13988,0-2.55968,0-2.98865-1.12187a21.37019,21.37019,0,0,1-.35695-4.85542V13.55235A21.39209,21.39209,0,0,1,39.57169,8.69993Z"/><path class="cls-2" d="M46.14387,6.04891v6.47521h1.53979l.007-.204c.141-4.21347,1.75277-4.39143,5.38434-4.39143.125,0,.25,0,.37294-.001.90291-.006,1.75479-.011,2.08971.322a.62682.62682,0,0,1,.167.46894V25.74045c0,2.52569-.354,3.56956-3.91053,3.71658l-.203.008V31.0078s4.14644-.152,6.54562-.152c1.83163,0,5.9208.152,5.9208.152V29.465l-.20292-.008c-3.5576-.147-3.91053-1.19089-3.91053-3.71658V8.71856a.56271.56271,0,0,1,.163-.42194c.41-.403,1.53985-.38594,2.44769-.37294.172.003.341.005.501.005,3.55156,0,4.69638,1.02783,4.90338,4.39747l.012.198H69.5V6.04891s-8.96243.05844-11.67806.05844S46.14387,6.04891,46.14387,6.04891Z"/><path class="cls-2" d="M27.97229,29.43739a4.44236,4.44236,0,0,1-3.50458-1.84481l-7.37109-8.462c3.88153-.50593,6.27424-3.07262,6.27424-6.77816A5.45981,5.45981,0,0,0,20.6032,7.17909,12.28855,12.28855,0,0,0,14.668,6.02628c-.77792.019-2.64866.08343-4.70941.08343-2.13714,0-6.57722-.08643-6.57722-.08643V7.57406h.30794C4.86612,7.567,6.191,7.57205,6.542,8.68994a22.29994,22.29994,0,0,1,.32295,4.58941V23.45809a36.24205,36.24205,0,0,1-.14966,3.99725,4.81123,4.81123,0,0,1-.17427.86615c-.36,1.11389-1.79482,1.11389-2.94867,1.11389h-.211v1.55076s3.456-.15195,5.76631-.15195c1.98614,0,5.44042.14809,5.44031.15195V29.43538h-.307c-1.15788.005-2.47071.002-2.85366-1.1159a4.83029,4.83029,0,0,1-.17393-.86414,33.45853,33.45853,0,0,1-.149-3.72525V19.56861c1.37886.012,1.49884.157,2.20872,1.01386.131.158.281.338.454.53795l6.15219,7.634,1.8088,2.23171s1.98335-.08368,2.94727-.08368c1.40155,0,3.476.08674,3.476.08674V29.46534ZM11.10437,17.87278s-.001-9.01385-.002-9.06688c-.006-.35994-.016-.85188.284-.99084a19.72941,19.72941,0,0,1,2.32375-.019c3.16159,0,4.97638,1.85078,4.97638,5.07542,0,2.35066-.62493,3.6995-2.02576,4.37544C15.35489,17.87778,11.10437,17.87278,11.10437,17.87278Z"/><path class="cls-1" d="M89.06069,19.9953h-2.36v5.522h-3.001V11.2143h6.281a5.01132,5.01132,0,0,1,3.741,1.34,4.268,4.268,0,0,1,1.281,3.101,3.9489,3.9489,0,0,1-2.841,4.001l3.581,5.861h-3.361Zm-2.36-2.36h3c1.521,0,2.321-.7,2.321-1.96,0-1.301-.84-1.94-2.28-1.94h-3.041Z"/><path class="cls-1" d="M95.6796,20.396a5.36183,5.36183,0,1,1,10.723,0,5.36183,5.36183,0,1,1-10.723,0m7.962,0c0-2-.94-3.36-2.601-3.36-1.68,0-2.6,1.36-2.6,3.36s.92,3.341,2.6,3.341c1.661,0,2.601-1.341,2.601-3.341"/><path class="cls-1" d="M107.1597,20.396c0-3.061,2-5.421,5.121-5.421a4.356,4.356,0,0,1,4.661,3.761h-2.66a1.87962,1.87962,0,0,0-1.881-1.58c-1.64,0-2.48,1.26-2.48,3.24,0,1.94.78,3.24,2.44,3.24a1.91546,1.91546,0,0,0,2.061-1.74h2.62a4.29831,4.29831,0,0,1-4.621,3.921,5.10352,5.10352,0,0,1-5.261-5.421"/><path class="cls-1" d="M120.9404,16.5952h.06a3.27184,3.27184,0,0,1,2.981-1.62,3.53061,3.53061,0,0,1,3.541,3.841v6.701h-2.721v-6.302a1.70793,1.70793,0,0,0-1.78-1.88,2.1448,2.1448,0,0,0-2.081,2.361v5.821h-2.72V11.2142h2.72Z"/><path class="cls-1" d="M128.6989,20.3769a5.0788,5.0788,0,0,1,5.062-5.402c3.3,0,5.061,2.521,5.061,6.181h-7.442a2.55062,2.55062,0,0,0,2.621,2.56,1.91451,1.91451,0,0,0,1.98-1.259h2.681a4.40477,4.40477,0,0,1-4.641,3.36,5.07961,5.07961,0,0,1-5.322-5.44m2.721-1.101h4.561a2.16348,2.16348,0,0,0-2.181-2.2,2.28331,2.28331,0,0,0-2.38,2.2"/><path class="cls-1" d="M139.4395,22.1968h2.521a1.97278,1.97278,0,0,0,2.24,1.7c1.2,0,1.88-.46,1.88-1.18,0-.981-1.3-1.081-2.701-1.361-1.84-.359-3.64-.86-3.64-3.1,0-2.221,1.84-3.281,4.181-3.281,2.7,0,4.201,1.34,4.401,3.401h-2.461c-.12-1.101-.82-1.5-1.98-1.5-1.061,0-1.761.399-1.761,1.139,0,.881,1.361.961,2.821,1.261,1.72.36,3.621.84,3.621,3.24,0,2.061-1.761,3.301-4.321,3.301-2.981,0-4.641-1.44-4.801-3.62"/><path class="cls-1" d="M148.97951,15.2554h1.42v-3.201h2.661v3.201h1.76v1.8h-1.76v5.441a.90079.90079,0,0,0,1.02,1.021c.34,0,.8-.021.8-.021v2.001s-.62.039-1.7.039c-1.321,0-2.781-.519-2.781-2.46v-6.021h-1.42Z"/><path class="cls-1" d="M155.61879,20.3769a5.0788,5.0788,0,0,1,5.062-5.402c3.3,0,5.061,2.521,5.061,6.181h-7.442a2.55062,2.55062,0,0,0,2.621,2.56,1.91451,1.91451,0,0,0,1.98-1.259h2.681a4.40476,4.40476,0,0,1-4.641,3.36,5.07961,5.07961,0,0,1-5.322-5.44m2.721-1.101h4.561a2.16347,2.16347,0,0,0-2.181-2.2,2.28332,2.28332,0,0,0-2.38,2.2"/><path class="cls-1" d="M169.6201,16.895h.06a2.69073,2.69073,0,0,1,2.52-1.76,1.78224,1.78224,0,0,1,.641.08v2.38h-.06c-1.781-.179-3.061.761-3.061,2.921v5.001h-2.721V15.255h2.621Z"/><rect class="cls-1" x="177.619" y="11.2141" width="2.89999" height="14.303"/><path class="cls-1" d="M185.1797,16.6548h.06a3.33384,3.33384,0,0,1,3.041-1.68,3.53115,3.53115,0,0,1,3.541,3.841v6.701h-2.721v-6.301a1.70794,1.70794,0,0,0-1.78-1.88,2.14389,2.14389,0,0,0-2.081,2.36v5.821h-2.72V15.2558h2.66Z"/><path class="cls-1" d="M192.8584,22.1968h2.521a1.97277,1.97277,0,0,0,2.24,1.7c1.2,0,1.881-.46,1.881-1.18,0-.981-1.301-1.081-2.702-1.361-1.839-.359-3.64-.86-3.64-3.1,0-2.221,1.841-3.281,4.18-3.281,2.702,0,4.202,1.34,4.402,3.401h-2.461c-.12-1.101-.82-1.5-1.981-1.5-1.059,0-1.759.399-1.759,1.139,0,.881,1.36.961,2.82,1.261,1.721.36,3.621.84,3.621,3.24,0,2.061-1.761,3.301-4.321,3.301-2.981,0-4.641-1.44-4.801-3.62"/><path class="cls-1" d="M202.39841,15.2554h1.42v-3.201h2.661v3.201h1.76v1.8h-1.76v5.441a.90079.90079,0,0,0,1.02,1.021c.34,0,.8-.021.8-.021v2.001s-.62.039-1.7.039c-1.32,0-2.781-.519-2.781-2.46v-6.021h-1.42Z"/><path class="cls-1" d="M209.638,11.2141h2.722v2.44h-2.722Zm0,4.041h2.722v10.262h-2.722Z"/><path class="cls-1" d="M213.5186,15.2554h1.42v-3.201h2.661v3.201h1.76v1.8h-1.76v5.441a.90079.90079,0,0,0,1.02,1.021c.34,0,.8-.021.8-.021v2.001s-.62.039-1.701.039c-1.319,0-2.78-.519-2.78-2.46v-6.021h-1.42Z"/><path class="cls-1" d="M227.2393,25.5171v-1.2h-.06a3.2935,3.2935,0,0,1-2.94,1.48,3.35058,3.35058,0,0,1-3.562-3.701v-6.841h2.702v6.381c0,1.2.54,1.86,1.7,1.86a2.07137,2.07137,0,0,0,2.06-2.32v-5.921h2.721v10.262Z"/><path class="cls-1" d="M231.01759,15.2554h1.42v-3.201h2.661v3.201h1.76v1.8h-1.76v5.441a.90079.90079,0,0,0,1.02,1.021c.34,0,.8-.021.8-.021v2.001s-.62.039-1.7.039c-1.32,0-2.781-.519-2.781-2.46v-6.021h-1.42Z"/><path class="cls-1" d="M237.65689,20.3769a5.0788,5.0788,0,0,1,5.062-5.402c3.301,0,5.06,2.521,5.06,6.181h-7.441a2.55,2.55,0,0,0,2.621,2.56,1.91663,1.91663,0,0,0,1.981-1.259h2.679a4.40285,4.40285,0,0,1-4.64,3.36,5.07962,5.07962,0,0,1-5.322-5.44m2.721-1.101h4.562a2.16469,2.16469,0,0,0-2.181-2.2,2.2836,2.2836,0,0,0-2.381,2.2"/><path class="cls-1" d="M251.8974,20.396a5.36182,5.36182,0,1,1,10.723,0,5.36182,5.36182,0,1,1-10.723,0m7.962,0c0-2-.94-3.36-2.601-3.36-1.68,0-2.6,1.36-2.6,3.36s.92,3.341,2.6,3.341c1.661,0,2.601-1.341,2.601-3.341"/><path class="cls-1" d="M263.07709,15.2554h1.4v-.921c0-2.5,1.941-3.381,4.561-3.1v2.1c-1.28-.059-1.84.1-1.84,1.16v.761h1.84v1.88h-1.84v8.382h-2.721v-8.382h-1.4Z"/><polygon class="cls-1" points="273.117 11.214 284.619 11.214 284.619 13.654 280.318 13.654 280.318 25.517 277.418 25.517 277.418 13.654 273.117 13.654 273.117 11.214"/><path class="cls-1" d="M283.0563,20.3769a5.0788,5.0788,0,0,1,5.062-5.402c3.301,0,5.06,2.521,5.06,6.181h-7.441a2.55,2.55,0,0,0,2.621,2.56,1.91659,1.91659,0,0,0,1.981-1.259h2.679a4.40284,4.40284,0,0,1-4.64,3.36,5.07961,5.07961,0,0,1-5.322-5.44m2.721-1.101h4.562a2.16529,2.16529,0,0,0-2.181-2.2,2.283,2.283,0,0,0-2.381,2.2"/><path class="cls-1" d="M293.93649,20.396c0-3.061,2.001-5.421,5.121-5.421a4.356,4.356,0,0,1,4.661,3.761h-2.66a1.88114,1.88114,0,0,0-1.881-1.58c-1.64,0-2.48,1.26-2.48,3.24,0,1.94.78,3.24,2.44,3.24a1.91549,1.91549,0,0,0,2.061-1.74h2.62a4.298,4.298,0,0,1-4.62,3.921,5.10376,5.10376,0,0,1-5.262-5.421"/><path class="cls-1" d="M307.7178,16.5952h.061a3.27032,3.27032,0,0,1,2.98-1.62,3.5306,3.5306,0,0,1,3.541,3.841v6.701h-2.721v-6.302a1.70793,1.70793,0,0,0-1.78-1.88,2.14479,2.14479,0,0,0-2.081,2.361v5.821h-2.721V11.2142h2.721Z"/><path class="cls-1" d="M318.6377,16.6548h.06a3.3338,3.3338,0,0,1,3.041-1.68,3.53116,3.53116,0,0,1,3.541,3.841v6.701h-2.721v-6.301a1.70794,1.70794,0,0,0-1.78-1.88,2.14446,2.14446,0,0,0-2.081,2.36v5.821h-2.721V15.2558h2.661Z"/><path class="cls-1" d="M326.45691,20.396a5.36182,5.36182,0,1,1,10.723,0,5.36182,5.36182,0,1,1-10.723,0m7.962,0c0-2-.94-3.36-2.601-3.36-1.68,0-2.6,1.36-2.6,3.36s.92,3.341,2.6,3.341c1.661,0,2.601-1.341,2.601-3.341"/><rect class="cls-1" x="338.47699" y="11.2141" width="2.72198" height="14.303"/><path class="cls-1" d="M342.496,20.396a5.36182,5.36182,0,1,1,10.723,0,5.36182,5.36182,0,1,1-10.723,0m7.962,0c0-2-.94-3.36-2.601-3.36-1.68,0-2.6,1.36-2.6,3.36s.92,3.341,2.6,3.341c1.661,0,2.601-1.341,2.601-3.341"/><path class="cls-1" d="M354.19687,25.8171h2.701c.219.64.799,1.14,2.06,1.14,1.54,0,2.28-.74,2.28-2.14v-1.12h-.059a3.32229,3.32229,0,0,1-2.681,1.2,4.61216,4.61216,0,0,1-4.521-4.901c0-3.061,1.839-5.021,4.441-5.021a3.30885,3.30885,0,0,1,2.841,1.36h.039v-1.08h2.621v9.482a3.98075,3.98075,0,0,1-1.221,3.121,5.36526,5.36526,0,0,1-3.7,1.16c-2.801,0-4.521-1.2-4.801-3.201m7.181-5.881c0-1.5-.8-2.78-2.44-2.78-1.38,0-2.3,1.08-2.3,2.8,0,1.74.92,2.76,2.32,2.76,1.72,0,2.42-1.259,2.42-2.78"/><path class="cls-1" d="M365.89651,26.7378h.96c1.08,0,1.52-.561,1.52-1.4a8.89443,8.89443,0,0,0-.78-2.782l-2.761-7.3h2.861l1.52,4.62c.321.94.66,2.241.66,2.241h.041s.28-1.301.6-2.241l1.44-4.62h2.741l-3.581,10.521c-.781,2.281-1.54,3.101-3.621,3.101h-1.6Z"/></svg>