<svg id="Layer_1" data-name="Layer 1" xmlns="http://www.w3.org/2000/svg" viewBox="0 0 82.52153 88"><defs><style>.cls-1{fill:#f26b24;}.cls-2{font-size:10.0816px;font-family:NHaasGroteskDSStd-65Md, Neue Haas Grotesk Display Std;}.cls-2,.cls-3,.cls-4{fill:#fff;}.cls-3{font-size:7.8973px;font-family:NHaasGroteskDSStd-55Rg, Neue Haas Grotesk Display Std;}</style></defs><title>RIT_RGB_vert_w</title><path class="cls-1" d="M44.39178,10.66138c.42994-1.12486,1.84975-1.12486,2.98962-1.12486h.212V7.98575s-4.4437.098-5.80283.098c-1.4002,0-5.55276-.098-5.55276-.098V9.53652h.212c1.13981,0,2.55968,0,2.98858,1.12291a21.36122,21.36122,0,0,1,.35695,4.85438v9.90674a21.4044,21.4044,0,0,1-.35591,4.8534c-.42994,1.12389-1.84981,1.12389-2.98962,1.12389h-.212v1.5518c-.0001-.00387,3.5923-.153,5.55912-.153,2.264,0,5.79647.153,5.79647.153V31.39784h-.212c-1.13987,0-2.55968,0-2.98864-1.12188a21.3701,21.3701,0,0,1-.357-4.85541V15.51381A21.39277,21.39277,0,0,1,44.39178,10.66138Z"/><path class="cls-1" d="M50.964,8.01036v6.47522h1.53979l.007-.204c.141-4.21347,1.75277-4.39142,5.38434-4.39142.125,0,.25,0,.37294-.001.90291-.006,1.75479-.011,2.08971.322a.6268.6268,0,0,1,.167.46894V27.7019c0,2.52569-.354,3.56957-3.91053,3.71658l-.203.008v1.54278s4.14644-.152,6.54562-.152c1.83163,0,5.92079.152,5.92079.152V31.42648l-.20291-.008c-3.55761-.147-3.91053-1.19089-3.91053-3.71658V10.68a.56278.56278,0,0,1,.16294-.422c.41-.403,1.53985-.38594,2.4477-.37294.172.003.341.005.501.005,3.55157,0,4.69639,1.02782,4.90339,4.39746l.012.198H74.3201V8.01036S65.35767,8.0688,62.642,8.0688,50.964,8.01036,50.964,8.01036Z"/><path class="cls-1" d="M32.79239,31.39884a4.44231,4.44231,0,0,1-3.50458-1.8448l-7.3711-8.462c3.88154-.50592,6.27425-3.07262,6.27425-6.77816A5.45981,5.45981,0,0,0,25.4233,9.14055a12.28842,12.28842,0,0,0-5.93524-1.15282c-.77793.019-2.64867.08344-4.70941.08344-2.13715,0-6.57722-.08643-6.57722-.08643V9.53551h.30794c1.17685-.007,2.50171-.002,2.85267,1.11589a22.29926,22.29926,0,0,1,.323,4.58941V25.41954a36.242,36.242,0,0,1-.14966,3.99725,4.81223,4.81223,0,0,1-.17427.86616c-.36,1.11388-1.79482,1.11388-2.94867,1.11388h-.211V32.9476s3.456-.152,5.76631-.152c1.98613,0,5.44042.14809,5.44031.152V31.39683h-.307c-1.15787.005-2.4707.002-2.85365-1.11589a4.831,4.831,0,0,1-.17394-.86415,33.46068,33.46068,0,0,1-.149-3.72525V21.53007c1.37885.012,1.49884.157,2.20871,1.01385.131.158.281.338.454.538l6.15219,7.634,1.8088,2.23171s1.98335-.08368,2.94727-.08368c1.40154,0,3.476.08673,3.476.08673V31.4268ZM15.92447,19.83423s-.001-9.01384-.002-9.06688c-.006-.35994-.016-.85187.284-.99083a19.72735,19.72735,0,0,1,2.32375-.01905c3.16159,0,4.97637,1.85079,4.97637,5.07542,0,2.35066-.62492,3.6995-2.02575,4.37544C20.175,19.83924,15.92447,19.83423,15.92447,19.83423Z"/><text class="cls-2" transform="translate(73.69531 71.59277)"> </text><text class="cls-2" transform="translate(73.69531 71.59277)"> </text><text class="cls-3" transform="translate(71.75293 51.6582)"> </text><path class="cls-4" d="M15.0273,52.4824h-1.416v3.311h-1.799v-8.577h3.766a3.00539,3.00539,0,0,1,2.243.804,2.56329,2.56329,0,0,1,.768,1.859,2.36743,2.36743,0,0,1-1.704,2.399l2.147,3.515h-2.015Zm-1.416-1.416h1.799c.911,0,1.391-.419,1.391-1.175,0-.779-.503-1.163-1.367-1.163h-1.823Z"/><path class="cls-4" d="M19.0014,52.7227a3.2142,3.2142,0,1,1,3.213,3.25,3.127,3.127,0,0,1-3.213-3.25m4.773,0c0-1.199-.564-2.016-1.56-2.016-1.007,0-1.559.817-1.559,2.016s.552,2.002,1.559,2.002c.996,0,1.56-.803,1.56-2.002"/><path class="cls-4" d="M25.8887,52.7227a3.03336,3.03336,0,0,1,3.07-3.25,2.61165,2.61165,0,0,1,2.795,2.254h-1.595a1.12818,1.12818,0,0,0-1.128-.947c-.983,0-1.487.756-1.487,1.943,0,1.163.468,1.942,1.463,1.942a1.14837,1.14837,0,0,0,1.236-1.044h1.571a2.57841,2.57841,0,0,1-2.771,2.352,3.0599,3.0599,0,0,1-3.154-3.25"/><path class="cls-4" d="M34.1553,50.4434h.036a1.96169,1.96169,0,0,1,1.787-.971,2.117,2.117,0,0,1,2.123,2.303v4.018h-1.631v-3.779a1.02471,1.02471,0,0,0-1.067-1.128,1.28715,1.28715,0,0,0-1.248,1.416v3.491h-1.631v-8.577h1.631Z"/><path class="cls-4" d="M38.8128,52.7098a3.043,3.043,0,0,1,3.034-3.237c1.979,0,3.034,1.51,3.034,3.705h-4.461a1.5298,1.5298,0,0,0,1.571,1.535,1.14586,1.14586,0,0,0,1.187-.756h1.608a2.64053,2.64053,0,0,1-2.783,2.016,3.04637,3.04637,0,0,1-3.19-3.263m1.631-.659h2.734a1.29666,1.29666,0,0,0-1.307-1.319,1.3693,1.3693,0,0,0-1.427,1.319"/><path class="cls-4" d="M45.2568,53.8018h1.511a1.18287,1.18287,0,0,0,1.343,1.019c.72,0,1.128-.276,1.128-.707,0-.588-.78-.648-1.619-.816-1.104-.216-2.183-.516-2.183-1.858,0-1.332,1.103-1.967,2.507-1.967,1.619,0,2.518.803,2.638,2.038h-1.475c-.072-.659-.492-.899-1.187-.899-.636,0-1.056.24-1.056.683,0,.528.815.576,1.691.756,1.032.216,2.171.504,2.171,1.943,0,1.235-1.055,1.979-2.591,1.979-1.787,0-2.782-.863-2.878-2.171"/><path class="cls-4" d="M50.981,49.6396h.852v-1.919h1.594v1.919h1.056v1.079H53.427v3.263a.54035.54035,0,0,0,.613.612c.203,0,.479-.013.479-.013v1.2s-.372.024-1.019.024c-.792,0-1.667-.312-1.667-1.476v-3.61h-.852Z"/><path class="cls-4" d="M54.9642,52.7098a3.04382,3.04382,0,0,1,3.035-3.237c1.979,0,3.034,1.51,3.034,3.705h-4.461a1.52921,1.52921,0,0,0,1.571,1.535,1.14667,1.14667,0,0,0,1.187-.756h1.607a2.64012,2.64012,0,0,1-2.782,2.016,3.04662,3.04662,0,0,1-3.191-3.263m1.632-.659h2.734a1.29666,1.29666,0,0,0-1.307-1.319,1.3687,1.3687,0,0,0-1.427,1.319"/><path class="cls-4" d="M63.3628,50.623h.036a1.61459,1.61459,0,0,1,1.511-1.055,1.099,1.099,0,0,1,.385.047v1.428h-.036a1.55,1.55,0,0,0-1.835,1.751v2.999h-1.632V49.64h1.571Z"/><rect class="cls-4" x="11.813" y="59.218" width="1.739" height="8.575"/><path class="cls-4" d="M16.3477,62.4795h.036a1.99951,1.99951,0,0,1,1.823-1.007,2.11626,2.11626,0,0,1,2.122,2.303v4.017h-1.63v-3.778a1.02415,1.02415,0,0,0-1.068-1.127,1.285,1.285,0,0,0-1.247,1.415v3.49h-1.631v-6.153h1.595Z"/><path class="cls-4" d="M20.9565,65.8018h1.511a1.18358,1.18358,0,0,0,1.343,1.02c.72,0,1.128-.277,1.128-.708,0-.587-.78-.648-1.619-.816-1.104-.216-2.183-.516-2.183-1.858,0-1.332,1.103-1.967,2.507-1.967,1.619,0,2.518.803,2.638,2.038h-1.475c-.072-.659-.492-.899-1.187-.899-.636,0-1.056.24-1.056.683,0,.528.815.576,1.691.756,1.032.216,2.171.504,2.171,1.943,0,1.236-1.055,1.979-2.591,1.979-1.787,0-2.782-.863-2.878-2.171"/><path class="cls-4" d="M26.6802,61.6396h.852v-1.919h1.595v1.919h1.055v1.08h-1.055v3.262a.53935.53935,0,0,0,.611.612c.204,0,.48-.013.48-.013v1.2s-.372.024-1.019.024c-.792,0-1.667-.311-1.667-1.476v-3.609h-.852Z"/><path class="cls-4" d="M31.024,59.218h1.631v1.463H31.024Zm0,2.422h1.631v6.153H31.024Z"/><path class="cls-4" d="M33.3521,61.6396h.852v-1.919h1.595v1.919h1.055v1.08h-1.055v3.262a.53935.53935,0,0,0,.611.612c.204,0,.48-.013.48-.013v1.2s-.372.024-1.019.024c-.792,0-1.667-.311-1.667-1.476v-3.609h-.852Z"/><path class="cls-4" d="M41.5815,67.793v-.72h-.036a1.97483,1.97483,0,0,1-1.763.888,2.00824,2.00824,0,0,1-2.135-2.219V61.64h1.619v3.826c0,.72.324,1.115,1.02,1.115a1.2421,1.2421,0,0,0,1.235-1.391V61.64h1.631v6.153Z"/><path class="cls-4" d="M43.8521,61.6396h.852v-1.919h1.595v1.919h1.055v1.08h-1.055v3.262a.53935.53935,0,0,0,.611.612c.204,0,.48-.013.48-.013v1.2s-.372.024-1.019.024c-.792,0-1.667-.311-1.667-1.476v-3.609h-.852Z"/><path class="cls-4" d="M47.8358,64.7098a3.04361,3.04361,0,0,1,3.034-3.237c1.979,0,3.034,1.511,3.034,3.705h-4.461a1.52917,1.52917,0,0,0,1.571,1.535,1.14632,1.14632,0,0,0,1.187-.755h1.608a2.64034,2.64034,0,0,1-2.782,2.015,3.04662,3.04662,0,0,1-3.191-3.263m1.631-.659h2.734a1.29645,1.29645,0,0,0-1.306-1.319,1.36958,1.36958,0,0,0-1.428,1.319"/><path class="cls-4" d="M56.3793,64.7227a3.2142,3.2142,0,1,1,3.214,3.25,3.12781,3.12781,0,0,1-3.214-3.25m4.773,0c0-1.199-.563-2.016-1.559-2.016-1.007,0-1.559.817-1.559,2.016s.552,2.003,1.559,2.003c.996,0,1.559-.804,1.559-2.003"/><path class="cls-4" d="M63.0879,61.6396h.84v-.551c0-1.5,1.163-2.027,2.734-1.859v1.259c-.767-.036-1.103.06-1.103.696v.455h1.103v1.128h-1.103v5.025h-1.631v-5.025h-.84Z"/><polygon class="cls-4" points="11.813 71.218 18.708 71.218 18.708 72.681 16.13 72.681 16.13 79.793 14.391 79.793 14.391 72.681 11.813 72.681 11.813 71.218"/><path class="cls-4" d="M17.7767,76.7098a3.04361,3.04361,0,0,1,3.034-3.237c1.979,0,3.034,1.511,3.034,3.705h-4.461a1.52917,1.52917,0,0,0,1.571,1.535,1.14632,1.14632,0,0,0,1.187-.755h1.608a2.64075,2.64075,0,0,1-2.783,2.015,3.04637,3.04637,0,0,1-3.19-3.263m1.631-.659h2.734a1.29666,1.29666,0,0,0-1.307-1.319,1.3693,1.3693,0,0,0-1.427,1.319"/><path class="cls-4" d="M24.3047,76.7227a3.0339,3.0339,0,0,1,3.07-3.25,2.6123,2.6123,0,0,1,2.795,2.254h-1.595a1.12818,1.12818,0,0,0-1.128-.947c-.983,0-1.487.756-1.487,1.943,0,1.163.468,1.942,1.463,1.942a1.14828,1.14828,0,0,0,1.236-1.043h1.571a2.579,2.579,0,0,1-2.771,2.351,3.05937,3.05937,0,0,1-3.154-3.25"/><path class="cls-4" d="M32.5713,74.4434h.036a1.96169,1.96169,0,0,1,1.787-.971,2.117,2.117,0,0,1,2.123,2.303v4.018h-1.631v-3.779a1.02391,1.02391,0,0,0-1.067-1.127,1.28626,1.28626,0,0,0-1.248,1.415v3.491h-1.631v-8.576h1.631Z"/><path class="cls-4" d="M39.1235,74.4795h.036a1.99951,1.99951,0,0,1,1.823-1.007,2.11626,2.11626,0,0,1,2.122,2.303v4.017h-1.63v-3.778a1.02415,1.02415,0,0,0-1.068-1.127,1.285,1.285,0,0,0-1.247,1.415v3.49h-1.631v-6.153h1.595Z"/><path class="cls-4" d="M43.8168,76.7227a3.2142,3.2142,0,1,1,3.213,3.25,3.12757,3.12757,0,0,1-3.213-3.25m4.773,0c0-1.199-.564-2.016-1.56-2.016-1.007,0-1.559.817-1.559,2.016s.552,2.003,1.559,2.003c.996,0,1.56-.804,1.56-2.003"/><rect class="cls-4" x="51.028" y="71.218" width="1.631" height="8.575"/><path class="cls-4" d="M53.4399,76.7227a3.2142,3.2142,0,1,1,3.214,3.25,3.1278,3.1278,0,0,1-3.214-3.25m4.773,0c0-1.199-.563-2.016-1.559-2.016-1.007,0-1.559.817-1.559,2.016s.552,2.003,1.559,2.003c.996,0,1.559-.804,1.559-2.003"/><path class="cls-4" d="M60.4596,79.9723h1.619c.132.384.481.684,1.236.684.924,0,1.367-.443,1.367-1.283v-.672h-.035a1.98944,1.98944,0,0,1-1.608.72,2.76484,2.76484,0,0,1-2.71-2.939,2.699,2.699,0,0,1,2.663-3.01,1.98359,1.98359,0,0,1,1.703.816h.023v-.649h1.571v5.686a2.38762,2.38762,0,0,1-.731,1.871,3.22481,3.22481,0,0,1-2.219.695c-1.678,0-2.711-.719-2.879-1.919m4.306-3.526a1.48031,1.48031,0,0,0-1.463-1.667c-.827,0-1.379.647-1.379,1.68,0,1.043.552,1.654,1.391,1.654,1.032,0,1.451-.755,1.451-1.667"/><path class="cls-4" d="M67.4795,80.5244h.576c.648,0,.911-.336.911-.84a5.31664,5.31664,0,0,0-.467-1.667l-1.655-4.378h1.715l.911,2.771c.193.564.396,1.343.396,1.343h.024s.168-.779.36-1.343l.864-2.771h1.642l-2.146,6.309c-.468,1.367-.924,1.859-2.171,1.859h-.96Z"/><text class="cls-3" transform="translate(71.75293 51.6582)"> </text><path class="cls-4" d="M15.0273,52.4824h-1.416v3.311h-1.799v-8.577h3.766a3.00539,3.00539,0,0,1,2.243.804,2.56329,2.56329,0,0,1,.768,1.859,2.36743,2.36743,0,0,1-1.704,2.399l2.147,3.515h-2.015Zm-1.416-1.416h1.799c.911,0,1.391-.419,1.391-1.175,0-.779-.503-1.163-1.367-1.163h-1.823Z"/><path class="cls-4" d="M19.0014,52.7227a3.2142,3.2142,0,1,1,3.213,3.25,3.127,3.127,0,0,1-3.213-3.25m4.773,0c0-1.199-.564-2.016-1.56-2.016-1.007,0-1.559.817-1.559,2.016s.552,2.002,1.559,2.002c.996,0,1.56-.803,1.56-2.002"/><path class="cls-4" d="M25.8887,52.7227a3.03336,3.03336,0,0,1,3.07-3.25,2.61165,2.61165,0,0,1,2.795,2.254h-1.595a1.12818,1.12818,0,0,0-1.128-.947c-.983,0-1.487.756-1.487,1.943,0,1.163.468,1.942,1.463,1.942a1.14837,1.14837,0,0,0,1.236-1.044h1.571a2.57841,2.57841,0,0,1-2.771,2.352,3.0599,3.0599,0,0,1-3.154-3.25"/><path class="cls-4" d="M34.1553,50.4434h.036a1.96169,1.96169,0,0,1,1.787-.971,2.117,2.117,0,0,1,2.123,2.303v4.018h-1.631v-3.779a1.02471,1.02471,0,0,0-1.067-1.128,1.28715,1.28715,0,0,0-1.248,1.416v3.491h-1.631v-8.577h1.631Z"/><path class="cls-4" d="M38.8128,52.7098a3.043,3.043,0,0,1,3.034-3.237c1.979,0,3.034,1.51,3.034,3.705h-4.461a1.5298,1.5298,0,0,0,1.571,1.535,1.14586,1.14586,0,0,0,1.187-.756h1.608a2.64053,2.64053,0,0,1-2.783,2.016,3.04637,3.04637,0,0,1-3.19-3.263m1.631-.659h2.734a1.29666,1.29666,0,0,0-1.307-1.319,1.3693,1.3693,0,0,0-1.427,1.319"/><path class="cls-4" d="M45.2568,53.8018h1.511a1.18287,1.18287,0,0,0,1.343,1.019c.72,0,1.128-.276,1.128-.707,0-.588-.78-.648-1.619-.816-1.104-.216-2.183-.516-2.183-1.858,0-1.332,1.103-1.967,2.507-1.967,1.619,0,2.518.803,2.638,2.038h-1.475c-.072-.659-.492-.899-1.187-.899-.636,0-1.056.24-1.056.683,0,.528.815.576,1.691.756,1.032.216,2.171.504,2.171,1.943,0,1.235-1.055,1.979-2.591,1.979-1.787,0-2.782-.863-2.878-2.171"/><path class="cls-4" d="M50.981,49.6396h.852v-1.919h1.594v1.919h1.056v1.079H53.427v3.263a.54035.54035,0,0,0,.613.612c.203,0,.479-.013.479-.013v1.2s-.372.024-1.019.024c-.792,0-1.667-.312-1.667-1.476v-3.61h-.852Z"/><path class="cls-4" d="M54.9642,52.7098a3.04382,3.04382,0,0,1,3.035-3.237c1.979,0,3.034,1.51,3.034,3.705h-4.461a1.52921,1.52921,0,0,0,1.571,1.535,1.14667,1.14667,0,0,0,1.187-.756h1.607a2.64012,2.64012,0,0,1-2.782,2.016,3.04662,3.04662,0,0,1-3.191-3.263m1.632-.659h2.734a1.29666,1.29666,0,0,0-1.307-1.319,1.3687,1.3687,0,0,0-1.427,1.319"/><path class="cls-4" d="M63.3628,50.623h.036a1.61459,1.61459,0,0,1,1.511-1.055,1.099,1.099,0,0,1,.385.047v1.428h-.036a1.55,1.55,0,0,0-1.835,1.751v2.999h-1.632V49.64h1.571Z"/><rect class="cls-4" x="11.813" y="59.218" width="1.739" height="8.575"/><path class="cls-4" d="M16.3477,62.4795h.036a1.99951,1.99951,0,0,1,1.823-1.007,2.11626,2.11626,0,0,1,2.122,2.303v4.017h-1.63v-3.778a1.02415,1.02415,0,0,0-1.068-1.127,1.285,1.285,0,0,0-1.247,1.415v3.49h-1.631v-6.153h1.595Z"/><path class="cls-4" d="M20.9565,65.8018h1.511a1.18358,1.18358,0,0,0,1.343,1.02c.72,0,1.128-.277,1.128-.708,0-.587-.78-.648-1.619-.816-1.104-.216-2.183-.516-2.183-1.858,0-1.332,1.103-1.967,2.507-1.967,1.619,0,2.518.803,2.638,2.038h-1.475c-.072-.659-.492-.899-1.187-.899-.636,0-1.056.24-1.056.683,0,.528.815.576,1.691.756,1.032.216,2.171.504,2.171,1.943,0,1.236-1.055,1.979-2.591,1.979-1.787,0-2.782-.863-2.878-2.171"/><path class="cls-4" d="M26.6802,61.6396h.852v-1.919h1.595v1.919h1.055v1.08h-1.055v3.262a.53935.53935,0,0,0,.611.612c.204,0,.48-.013.48-.013v1.2s-.372.024-1.019.024c-.792,0-1.667-.311-1.667-1.476v-3.609h-.852Z"/><path class="cls-4" d="M31.024,59.218h1.631v1.463H31.024Zm0,2.422h1.631v6.153H31.024Z"/><path class="cls-4" d="M33.3521,61.6396h.852v-1.919h1.595v1.919h1.055v1.08h-1.055v3.262a.53935.53935,0,0,0,.611.612c.204,0,.48-.013.48-.013v1.2s-.372.024-1.019.024c-.792,0-1.667-.311-1.667-1.476v-3.609h-.852Z"/><path class="cls-4" d="M41.5815,67.793v-.72h-.036a1.97483,1.97483,0,0,1-1.763.888,2.00824,2.00824,0,0,1-2.135-2.219V61.64h1.619v3.826c0,.72.324,1.115,1.02,1.115a1.2421,1.2421,0,0,0,1.235-1.391V61.64h1.631v6.153Z"/><path class="cls-4" d="M43.8521,61.6396h.852v-1.919h1.595v1.919h1.055v1.08h-1.055v3.262a.53935.53935,0,0,0,.611.612c.204,0,.48-.013.48-.013v1.2s-.372.024-1.019.024c-.792,0-1.667-.311-1.667-1.476v-3.609h-.852Z"/><path class="cls-4" d="M47.8358,64.7098a3.04361,3.04361,0,0,1,3.034-3.237c1.979,0,3.034,1.511,3.034,3.705h-4.461a1.52917,1.52917,0,0,0,1.571,1.535,1.14632,1.14632,0,0,0,1.187-.755h1.608a2.64034,2.64034,0,0,1-2.782,2.015,3.04662,3.04662,0,0,1-3.191-3.263m1.631-.659h2.734a1.29645,1.29645,0,0,0-1.306-1.319,1.36958,1.36958,0,0,0-1.428,1.319"/><path class="cls-4" d="M56.3793,64.7227a3.2142,3.2142,0,1,1,3.214,3.25,3.12781,3.12781,0,0,1-3.214-3.25m4.773,0c0-1.199-.563-2.016-1.559-2.016-1.007,0-1.559.817-1.559,2.016s.552,2.003,1.559,2.003c.996,0,1.559-.804,1.559-2.003"/><path class="cls-4" d="M63.0879,61.6396h.84v-.551c0-1.5,1.163-2.027,2.734-1.859v1.259c-.767-.036-1.103.06-1.103.696v.455h1.103v1.128h-1.103v5.025h-1.631v-5.025h-.84Z"/><polygon class="cls-4" points="11.813 71.218 18.708 71.218 18.708 72.681 16.13 72.681 16.13 79.793 14.391 79.793 14.391 72.681 11.813 72.681 11.813 71.218"/><path class="cls-4" d="M17.7767,76.7098a3.04361,3.04361,0,0,1,3.034-3.237c1.979,0,3.034,1.511,3.034,3.705h-4.461a1.52917,1.52917,0,0,0,1.571,1.535,1.14632,1.14632,0,0,0,1.187-.755h1.608a2.64075,2.64075,0,0,1-2.783,2.015,3.04637,3.04637,0,0,1-3.19-3.263m1.631-.659h2.734a1.29666,1.29666,0,0,0-1.307-1.319,1.3693,1.3693,0,0,0-1.427,1.319"/><path class="cls-4" d="M24.3047,76.7227a3.0339,3.0339,0,0,1,3.07-3.25,2.6123,2.6123,0,0,1,2.795,2.254h-1.595a1.12818,1.12818,0,0,0-1.128-.947c-.983,0-1.487.756-1.487,1.943,0,1.163.468,1.942,1.463,1.942a1.14828,1.14828,0,0,0,1.236-1.043h1.571a2.579,2.579,0,0,1-2.771,2.351,3.05937,3.05937,0,0,1-3.154-3.25"/><path class="cls-4" d="M32.5713,74.4434h.036a1.96169,1.96169,0,0,1,1.787-.971,2.117,2.117,0,0,1,2.123,2.303v4.018h-1.631v-3.779a1.02391,1.02391,0,0,0-1.067-1.127,1.28626,1.28626,0,0,0-1.248,1.415v3.491h-1.631v-8.576h1.631Z"/><path class="cls-4" d="M39.1235,74.4795h.036a1.99951,1.99951,0,0,1,1.823-1.007,2.11626,2.11626,0,0,1,2.122,2.303v4.017h-1.63v-3.778a1.02415,1.02415,0,0,0-1.068-1.127,1.285,1.285,0,0,0-1.247,1.415v3.49h-1.631v-6.153h1.595Z"/><path class="cls-4" d="M43.8168,76.7227a3.2142,3.2142,0,1,1,3.213,3.25,3.12757,3.12757,0,0,1-3.213-3.25m4.773,0c0-1.199-.564-2.016-1.56-2.016-1.007,0-1.559.817-1.559,2.016s.552,2.003,1.559,2.003c.996,0,1.56-.804,1.56-2.003"/><rect class="cls-4" x="51.028" y="71.218" width="1.631" height="8.575"/><path class="cls-4" d="M53.4399,76.7227a3.2142,3.2142,0,1,1,3.214,3.25,3.1278,3.1278,0,0,1-3.214-3.25m4.773,0c0-1.199-.563-2.016-1.559-2.016-1.007,0-1.559.817-1.559,2.016s.552,2.003,1.559,2.003c.996,0,1.559-.804,1.559-2.003"/><path class="cls-4" d="M60.4596,79.9723h1.619c.132.384.481.684,1.236.684.924,0,1.367-.443,1.367-1.283v-.672h-.035a1.98944,1.98944,0,0,1-1.608.72,2.76484,2.76484,0,0,1-2.71-2.939,2.699,2.699,0,0,1,2.663-3.01,1.98359,1.98359,0,0,1,1.703.816h.023v-.649h1.571v5.686a2.38762,2.38762,0,0,1-.731,1.871,3.22481,3.22481,0,0,1-2.219.695c-1.678,0-2.711-.719-2.879-1.919m4.306-3.526a1.48031,1.48031,0,0,0-1.463-1.667c-.827,0-1.379.647-1.379,1.68,0,1.043.552,1.654,1.391,1.654,1.032,0,1.451-.755,1.451-1.667"/><path class="cls-4" d="M67.4795,80.5244h.576c.648,0,.911-.336.911-.84a5.31664,5.31664,0,0,0-.467-1.667l-1.655-4.378h1.715l.911,2.771c.193.564.396,1.343.396,1.343h.024s.168-.779.36-1.343l.864-2.771h1.642l-2.146,6.309c-.468,1.367-.924,1.859-2.171,1.859h-.96Z"/><rect class="cls-4" x="8.17973" y="39.82462" width="66.11868" height="0.38184"/></svg>